<svg version="1.1" id="Layer_1" xmlns="http://www.w3.org/2000/svg" xmlns:xlink="http://www.w3.org/1999/xlink" x="0px" y="0px"
	 width="100%" viewBox="0 0 1024 1024" enable-background="new 0 0 1024 1024" xml:space="preserve">
<path fill="#000000" opacity="1.000000" stroke="none" 
	d="
M790.352783,688.000122 
	C790.347473,701.997253 790.272156,715.495056 790.386902,728.991150 
	C790.415100,732.310303 789.619507,733.563538 785.901917,733.559937 
	C654.603760,733.431946 523.305603,733.429321 392.007385,733.412720 
	C342.017944,733.406372 292.028503,733.412415 242.039062,733.403320 
	C234.880966,733.401978 234.852875,733.377014 234.851639,726.286377 
	C234.824158,569.153137 234.801575,412.019958 234.786316,254.886749 
	C234.785538,246.786774 234.819733,246.809036 242.551651,246.809128 
	C422.846130,246.811005 603.140625,246.808578 783.435120,246.801956 
	C790.320374,246.801712 790.343201,246.778519 790.343506,253.592468 
	C790.349976,398.228333 790.350891,542.864197 790.352783,688.000122 
M309.500061,284.323425 
	C300.834595,284.324829 292.169128,284.323151 283.503662,284.328613 
	C276.350525,284.333099 276.347748,284.336823 276.347565,291.373749 
	C276.344818,398.696472 276.342255,506.019196 276.341187,613.341919 
	C276.340942,639.172668 276.341400,665.003479 276.352783,690.834229 
	C276.355591,697.204834 276.674713,697.502075 283.169037,697.602661 
	C283.835541,697.612976 284.502228,697.612244 285.168823,697.612244 
	C436.153870,697.616394 587.138916,697.620544 738.123962,697.621033 
	C740.290283,697.621033 742.456543,697.559692 744.622864,697.558350 
	C747.422058,697.556580 748.968140,696.334717 749.058960,693.385681 
	C749.171692,689.724487 749.588623,686.067566 749.589417,682.408691 
	C749.619202,552.255127 749.619568,422.101532 749.606384,291.947937 
	C749.605591,284.330139 749.537109,284.328369 741.957458,284.328278 
	C598.138367,284.326508 454.319214,284.325226 309.500061,284.323425 
z"/>
<path fill="#000000" opacity="1.000000" stroke="none" 
	d="
M347.195129,384.082031 
	C345.990753,381.564880 347.664886,380.426086 348.982422,379.210205 
	C359.262329,369.723663 369.610565,360.310516 379.827881,350.757263 
	C382.390503,348.361206 384.151184,348.887115 386.561676,351.057312 
	C422.572113,383.478577 459.108093,415.300751 495.909485,446.820831 
	C506.401917,455.807465 516.676880,465.048523 527.016052,474.212952 
	C528.102905,475.176270 529.479126,475.972382 530.108582,478.669708 
	C481.713745,522.062744 432.925507,565.808594 384.192749,609.504639 
	C381.439270,608.886719 380.255127,606.673218 378.563812,605.186340 
	C368.932983,596.719543 359.459991,588.071960 349.770569,579.673645 
	C346.486908,576.827576 346.241821,574.809631 349.599182,571.709900 
	C381.040955,542.680359 412.749908,513.946899 444.638855,485.410431 
	C447.343781,482.989929 449.904938,480.408752 452.504669,477.929169 
	C450.843750,474.688843 448.185730,473.139069 445.979584,471.198425 
	C414.220825,443.261658 382.423492,415.368744 350.643677,387.455963 
	C349.519684,386.468719 348.480194,385.385223 347.195129,384.082031 
z"/>
<path fill="#000000" opacity="1.000000" stroke="none" 
	d="
M610.999878,634.400757 
	C581.000977,634.386841 551.501160,634.256714 522.003906,634.468567 
	C516.856201,634.505554 515.413818,632.853271 515.567261,627.887390 
	C515.896545,617.231201 515.786743,606.556152 515.617310,595.892639 
	C515.557190,592.108521 516.652466,590.597473 520.708435,590.606506 
	C573.539673,590.724609 626.371216,590.727356 679.202515,590.646851 
	C683.143127,590.640869 684.438538,592.047241 684.375977,595.907288 
	C684.195007,607.070679 684.166382,618.241272 684.370117,629.403748 
	C684.445068,633.508972 682.705444,634.436523 678.997498,634.419800 
	C656.498718,634.318298 633.999207,634.388123 610.999878,634.400757 
z"/>
</svg>